<svg width="40" height="40" viewBox="0 0 40 40" fill="none" xmlns="http://www.w3.org/2000/svg">
<path d="M13.3333 25.6667V14.3333C13.3333 14.0681 13.4387 13.8138 13.6262 13.6262C13.8137 13.4387 14.0681 13.3333 14.3333 13.3333H25.6666C25.9319 13.3333 26.1862 13.4387 26.3738 13.6262C26.5613 13.8138 26.6666 14.0681 26.6666 14.3333V25.6667C26.6666 25.9319 26.5613 26.1862 26.3738 26.3738C26.1862 26.5613 25.9319 26.6667 25.6666 26.6667H14.3333C14.0681 26.6667 13.8137 26.5613 13.6262 26.3738C13.4387 26.1862 13.3333 25.9319 13.3333 25.6667Z" stroke="#E6E6E6" stroke-width="3" stroke-linecap="round" stroke-linejoin="round"/>
<path d="M28.3333 6.66668V3.33334M20 6.66668V3.33334M11.6666 6.66668V3.33334M11.6666 33.3333V36.6667M20 33.3333V36.6667M28.3333 33.3333V36.6667M33.3333 28.3333H36.6666M33.3333 20H36.6666M33.3333 11.6667H36.6666M6.66665 28.3333H3.33331M6.66665 20H3.33331M6.66665 11.6667H3.33331M33.3333 7.66668V32.3333C33.3333 32.5986 33.228 32.8529 33.0404 33.0405C32.8529 33.228 32.5985 33.3333 32.3333 33.3333H7.66665C7.40143 33.3333 7.14708 33.228 6.95954 33.0405C6.772 32.8529 6.66665 32.5986 6.66665 32.3333V7.66668C6.66665 7.40146 6.772 7.14711 6.95954 6.95957C7.14708 6.77203 7.40143 6.66668 7.66665 6.66668H32.3333C32.5985 6.66668 32.8529 6.77203 33.0404 6.95957C33.228 7.14711 33.3333 7.40146 33.3333 7.66668Z" stroke="#E6E6E6" stroke-width="3" stroke-linecap="round" stroke-linejoin="round"/>
</svg>
