<svg width="77" height="20" viewBox="0 0 77 20" fill="none" xmlns="http://www.w3.org/2000/svg">
<g clip-path="url(#clip0_4_173)">
<path fill-rule="evenodd" clip-rule="evenodd" d="M68.8088 1.26367L74.5511 4.55293C74.8872 4.74547 75.1665 5.02336 75.3607 5.35849C75.555 5.69362 75.6573 6.07411 75.6573 6.46147V13.737C75.6573 14.1032 75.559 14.4626 75.3728 14.7778C75.1865 15.0931 74.9191 15.3525 74.5984 15.5292L68.4149 18.935C68.0915 19.1132 67.7275 19.205 67.3582 19.2015C66.9889 19.198 66.6268 19.0994 66.3067 18.9151L60.8723 15.787C60.4282 15.5314 60.0593 15.1632 59.8028 14.7196C59.5463 14.276 59.4113 13.7726 59.4113 13.2601V7.09518C59.4113 6.52886 59.5582 5.97223 59.8376 5.47967C60.1171 4.98712 60.5196 4.57549 61.0057 4.285L66.019 1.2894C66.4399 1.0379 66.9201 0.902955 67.4104 0.898433C67.9007 0.893911 68.3833 1.01997 68.8088 1.26367Z" fill="#EBB951" stroke="#FCD804" stroke-width="1.5"/>
<path fill-rule="evenodd" clip-rule="evenodd" d="M49.0061 1.16721L55.0067 4.58307C55.3286 4.76628 55.5962 5.03147 55.7824 5.35168C55.9685 5.67189 56.0666 6.03569 56.0665 6.40609V13.5416C56.0666 13.9517 55.9571 14.3544 55.7493 14.708C55.5416 15.0616 55.2432 15.3533 54.8849 15.5529L48.8839 18.8951C48.5427 19.0851 48.158 19.1831 47.7676 19.1794C47.3771 19.1757 46.9943 19.0705 46.6568 18.8741L41.244 15.7232C40.8109 15.4711 40.4515 15.1098 40.2017 14.6754C39.9519 14.241 39.8205 13.7486 39.8205 13.2475V7.16465C39.8205 6.56182 39.9771 5.96933 40.2751 5.44528C40.5731 4.92124 41.0021 4.48364 41.5202 4.1754L46.5361 1.19074C46.909 0.968805 47.3342 0.849704 47.7682 0.84557C48.2022 0.841437 48.6295 0.95242 49.0067 1.16721H49.0061Z" fill="#33BA91" stroke="#00A88A" stroke-width="1.5"/>
<path fill-rule="evenodd" clip-rule="evenodd" d="M29.4251 1.0726L35.4215 4.5969C35.7272 4.77658 35.9809 5.03263 36.1579 5.33994C36.3348 5.64724 36.4288 5.99525 36.4307 6.34984L36.468 13.4429C36.4705 13.8826 36.3548 14.3149 36.1331 14.6946C35.9114 15.0743 35.5918 15.3875 35.2077 15.6015L29.3187 18.8808C28.9698 19.0751 28.5763 19.1753 28.177 19.1716C27.7776 19.1678 27.3861 19.0602 27.0409 18.8593L21.6276 15.7084C21.2023 15.4608 20.8494 15.106 20.6041 14.6794C20.3588 14.2528 20.2297 13.7693 20.2297 13.2772V6.98309C20.2296 6.43384 20.37 5.8937 20.6374 5.41395C20.9048 4.93419 21.2904 4.53075 21.7576 4.24191L26.8368 1.10125C27.2248 0.861418 27.6709 0.732008 28.127 0.72696C28.5831 0.721913 29.0319 0.841419 29.4251 1.0726Z" fill="#0594CB" stroke="#0083C0" stroke-width="1.5"/>
<path fill-rule="evenodd" clip-rule="evenodd" d="M10.0159 1.23421L15.868 4.63779C16.2085 4.83582 16.4911 5.11975 16.6875 5.4612C16.8839 5.80265 16.9873 6.18967 16.9872 6.58357V13.5621C16.9872 13.9975 16.8713 14.4251 16.6515 14.801C16.4318 15.1769 16.116 15.4876 15.7366 15.7012L9.92839 18.9718C9.54953 19.1851 9.12171 19.2962 8.68694 19.2941C8.25217 19.292 7.82542 19.1769 7.4486 18.96L2.09975 15.8813C1.68682 15.6436 1.34383 15.3013 1.10532 14.8888C0.866814 14.4764 0.741216 14.0084 0.74118 13.5319V6.90941C0.741138 6.42966 0.863779 5.95788 1.09745 5.53889C1.33111 5.1199 1.66804 4.76763 2.07622 4.51554L7.33453 1.26951C7.73641 1.02147 8.19809 0.887179 8.67031 0.880963C9.14254 0.874748 9.60759 0.996839 10.0159 1.23421Z" fill="#FF4088" stroke="#C9177E" stroke-width="1.5"/>
<path fill-rule="evenodd" clip-rule="evenodd" d="M67.556 4.56006C70.5632 4.56006 73.0046 7.00149 73.0046 10.0081C73.0046 13.0158 70.5632 15.4567 67.556 15.4567C64.5494 15.4567 62.1074 13.0153 62.1074 10.0081C62.1074 7.00149 64.5494 4.56006 67.556 4.56006ZM67.556 6.5841C69.446 6.5841 70.9801 8.11863 70.9801 10.0081C70.9797 10.9161 70.6188 11.7868 69.9767 12.4289C69.3347 13.0709 68.464 13.4318 67.556 13.4322C65.666 13.4322 64.132 11.8982 64.132 10.0081C64.1324 9.10024 64.4932 8.22964 65.1351 7.58761C65.7771 6.94558 66.6476 6.58464 67.5555 6.5841H67.556ZM53.0394 9.92476C53.0394 12.3381 52.5821 13.0414 51.668 14.0465C50.754 15.0516 49.5417 15.4567 48.0312 15.4567C46.6501 15.4567 45.5376 14.9667 44.5729 14.115C43.5049 13.1713 42.7274 11.7089 42.7274 10.0767C42.7274 8.47208 43.3269 7.08538 44.3893 6.05264C45.3212 5.14881 46.7084 4.56006 48.1386 4.56006C49.866 4.56006 51.6593 5.37745 52.7647 6.99126L51.1417 8.36313C50.4537 7.08282 49.4568 6.65162 48.0307 6.6107C46.4537 6.56569 44.7177 8.07003 44.8466 10.0762C44.9182 11.1984 45.4425 13.1273 47.9647 13.4813C49.2895 13.667 50.7964 12.2526 50.7964 11.4844H48.3069V9.5662H53.0384V9.92323L53.0394 9.92476ZM24.2619 5.08333H26.4251V10.8209C26.4251 11.7314 26.4501 12.3212 26.5003 12.5913C26.5867 13.025 26.7463 13.3263 27.0716 13.5887C27.3975 13.8511 27.7775 13.9258 28.3422 13.9258C28.9151 13.9258 29.1074 13.8368 29.399 13.5882C29.69 13.3401 29.8655 13.1043 29.9248 12.7427C29.9836 12.381 30.0818 11.781 30.0818 10.9432V5.08333H32.2445V10.6475C32.2445 11.9191 32.1898 12.8179 32.0803 13.3427C31.9709 13.868 31.7693 14.311 31.4757 14.6726C31.1821 15.0337 30.7893 15.3217 30.2977 15.536C29.8056 15.7503 29.1642 15.8572 28.3719 15.8572C27.4154 15.8572 26.6905 15.7406 26.1969 15.5069C25.7028 15.2731 25.312 14.9698 25.0256 14.5964C24.7386 14.223 24.5499 13.8317 24.4588 13.422C24.3269 12.8153 24.2604 11.9191 24.2604 10.734V5.08333H24.2619ZM4.80359 15.3411V4.74164H7.02098V8.60251H10.6998V4.74164H12.9238V15.3411H10.6998V10.7063H7.02098V15.3411H4.80359Z" fill="white"/>
</g>
<defs>
<clipPath id="clip0_4_173">
<rect width="76.3683" height="20" fill="white"/>
</clipPath>
</defs>
</svg>
